<svg width="60" height="24" viewBox="0 0 60 24" fill="none" xmlns="http://www.w3.org/2000/svg">
<path d="M24.072 16V18H16.648V16H19.112V9.392L16.808 10.752V8.56L20.152 6.608H21.608V16H24.072ZM31.4418 12.128C32.1778 12.32 32.7484 12.656 33.1538 13.136C33.5591 13.616 33.7618 14.2027 33.7618 14.896C33.7618 15.5573 33.5751 16.1333 33.2018 16.624C32.8391 17.104 32.3271 17.4773 31.6658 17.744C31.0044 18 30.2471 18.128 29.3938 18.128C28.5404 18.128 27.7831 18 27.1218 17.744C26.4604 17.4773 25.9431 17.104 25.5698 16.624C25.2071 16.1333 25.0258 15.5573 25.0258 14.896C25.0258 14.2027 25.2284 13.616 25.6338 13.136C26.0498 12.6453 26.6204 12.3093 27.3458 12.128C26.7058 11.9147 26.2044 11.584 25.8418 11.136C25.4791 10.688 25.2978 10.16 25.2978 9.552C25.2978 8.93333 25.4738 8.38933 25.8258 7.92C26.1778 7.45067 26.6631 7.09333 27.2818 6.848C27.9111 6.592 28.6151 6.464 29.3938 6.464C30.1724 6.464 30.8711 6.592 31.4898 6.848C32.1191 7.09333 32.6098 7.45067 32.9618 7.92C33.3138 8.38933 33.4898 8.93333 33.4898 9.552C33.4898 10.1707 33.3031 10.7093 32.9298 11.168C32.5671 11.6267 32.0711 11.9467 31.4418 12.128ZM29.3938 8.384C28.8604 8.384 28.4338 8.50667 28.1138 8.752C27.8044 8.99733 27.6498 9.35467 27.6498 9.824C27.6498 10.272 27.8044 10.6347 28.1138 10.912C28.4338 11.1787 28.8604 11.3653 29.3938 11.472C29.9271 11.3653 30.3484 11.1787 30.6578 10.912C30.9778 10.6347 31.1378 10.272 31.1378 9.824C31.1378 9.35467 30.9778 8.99733 30.6578 8.752C30.3484 8.50667 29.9271 8.384 29.3938 8.384ZM29.3938 16.208C30.0231 16.208 30.5191 16.08 30.8818 15.824C31.2551 15.568 31.4418 15.1947 31.4418 14.704C31.4418 14.2453 31.2551 13.872 30.8818 13.584C30.5191 13.296 30.0231 13.104 29.3938 13.008C28.7644 13.104 28.2631 13.296 27.8898 13.584C27.5271 13.872 27.3458 14.2453 27.3458 14.704C27.3458 15.1947 27.5271 15.568 27.8898 15.824C28.2631 16.08 28.7644 16.208 29.3938 16.208ZM42.9235 14.192H39.8195V17.312H38.1555V14.192H35.0515V12.544H38.1555V9.424H39.8195V12.544H42.9235V14.192Z" fill="white"/>
<rect x="0.75" y="0.75" width="58.2541" height="22.5" rx="11.25" stroke="url(#paint0_linear)" stroke-width="1.5"/>
<defs>
<linearGradient id="paint0_linear" x1="43.5496" y1="24" x2="34.4782" y2="0.176195" gradientUnits="userSpaceOnUse">
<stop stop-color="#26FFF2"/>
<stop offset="1" stop-color="#326CFF"/>
</linearGradient>
</defs>
</svg>
